<svg width="800px" height="800px" viewBox="0 0 32 32" xmlns="http://www.w3.org/2000/svg" xmlns:xlink="http://www.w3.org/1999/xlink">
  <defs>
    <clipPath id="clip-clock">
      <rect width="32" height="32"/>
    </clipPath>
  </defs>
  <g id="clock" clip-path="url(#clip-clock)">
    <g id="Group_2197" data-name="Group 2197" transform="translate(0 -364)">
      <g id="Group_2190" data-name="Group 2190">
        <g id="Group_2189" data-name="Group 2189">
          <g id="Group_2188" data-name="Group 2188">
            <path id="Path_3809" data-name="Path 3809" d="M15.9,369.543a11.01,11.01,0,1,0,11.01,11.011A11.023,11.023,0,0,0,15.9,369.543Zm.5,20.988v-.884a.5.5,0,1,0-1.008,0v.884a10,10,0,0,1-9.473-9.473H6.8a.5.5,0,0,0,0-1.008H5.918a10,10,0,0,1,9.473-9.474v.885a.5.5,0,0,0,1.008,0v-.885a10,10,0,0,1,9.473,9.474h-.885a.5.5,0,0,0,0,1.008h.885A10,10,0,0,1,16.4,390.531Z" fill="#344952"/>
          </g>
        </g>
      </g>
      <g id="Group_2193" data-name="Group 2193">
        <g id="Group_2192" data-name="Group 2192">
          <g id="Group_2191" data-name="Group 2191">
            <path id="Path_3810" data-name="Path 3810" d="M20.763,374.067l-5.252,6.16a.5.5,0,0,0,.027.683l3.433,3.433a.5.5,0,1,0,.713-.713l-3.1-3.1,4.951-5.806a.5.5,0,0,0-.768-.654Z" fill="#344952"/>
          </g>
        </g>
      </g>
      <g id="Group_2196" data-name="Group 2196">
        <g id="Group_2195" data-name="Group 2195">
          <g id="Group_2194" data-name="Group 2194">
            <path id="Path_3811" data-name="Path 3811" d="M29.978,371.7a.5.5,0,0,0,.713,0,4.052,4.052,0,1,0-5.731-5.731.5.5,0,0,0,0,.713l2.141,2.141-1.147,1.118a14.564,14.564,0,0,0-20.035-.075l-1.032-1.031,2.153-2.153a.5.5,0,0,0,0-.713,4.149,4.149,0,0,0-5.731,0,4.052,4.052,0,0,0,0,5.731.5.5,0,0,0,.713,0l2.153-2.152,1.031,1.03a14.58,14.58,0,0,0,.451,20.428.9.9,0,0,0-.116.077L3.125,393.5a1.008,1.008,0,1,0,1.425,1.425l2.416-2.415a.972.972,0,0,0,.166-.25,14.56,14.56,0,0,0,16.86.486l2.2,2.15a1.008,1.008,0,0,0,1.41-1.442l-2.006-1.96a14.568,14.568,0,0,0,1.062-20.832l1.155-1.125ZM1.7,370.6a3.045,3.045,0,0,1,4.246-4.248L3.82,368.476h0l0,0ZM15.9,393.18a12.626,12.626,0,1,1,12.627-12.626A12.641,12.641,0,0,1,15.9,393.18Zm14.083-26.5a3.045,3.045,0,0,1,.327,3.92l-2.124-2.125h0l-2.12-2.122A3.115,3.115,0,0,1,29.978,366.681Z" fill="#344952"/>
          </g>
        </g>
      </g>
    </g>
  </g>
</svg>